<mxfile host="app.diagrams.net" agent="Mozilla/5.0 (Windows NT 10.0; Win64; x64) AppleWebKit/537.36 (KHTML, like Gecko) Chrome/126.0.0.0 Safari/537.36" version="26.0.6">
  <diagram name="Page-1" id="6vrrMP6loWBnC774RMp3">
    <mxGraphModel dx="726" dy="1198" grid="1" gridSize="10" guides="1" tooltips="1" connect="1" arrows="1" fold="1" page="1" pageScale="1" pageWidth="850" pageHeight="1100" math="0" shadow="0">
      <root>
        <mxCell id="0" />
        <mxCell id="1" parent="0" />
        <mxCell id="T27CqYGsaPS9d729V8mV-10" style="edgeStyle=orthogonalEdgeStyle;rounded=0;orthogonalLoop=1;jettySize=auto;html=1;exitX=0;exitY=0;exitDx=0;exitDy=0;entryX=0;entryY=0;entryDx=0;entryDy=0;endArrow=none;endFill=0;" edge="1" parent="1" source="T27CqYGsaPS9d729V8mV-1" target="T27CqYGsaPS9d729V8mV-7">
          <mxGeometry relative="1" as="geometry">
            <mxPoint x="110" y="250" as="targetPoint" />
            <Array as="points">
              <mxPoint x="110" y="260" />
              <mxPoint x="590" y="260" />
            </Array>
          </mxGeometry>
        </mxCell>
        <mxCell id="T27CqYGsaPS9d729V8mV-1" value="U" style="whiteSpace=wrap;html=1;aspect=fixed;fontSize=24;fillColor=#d5e8d4;strokeColor=#82b366;" vertex="1" parent="1">
          <mxGeometry x="110" y="300" width="80" height="80" as="geometry" />
        </mxCell>
        <mxCell id="T27CqYGsaPS9d729V8mV-2" value="S" style="whiteSpace=wrap;html=1;aspect=fixed;fontSize=24;fillColor=#d5e8d4;strokeColor=#82b366;" vertex="1" parent="1">
          <mxGeometry x="190" y="300" width="80" height="80" as="geometry" />
        </mxCell>
        <mxCell id="T27CqYGsaPS9d729V8mV-3" value="E" style="whiteSpace=wrap;html=1;aspect=fixed;fontSize=24;fillColor=#d5e8d4;strokeColor=#82b366;" vertex="1" parent="1">
          <mxGeometry x="270" y="300" width="80" height="80" as="geometry" />
        </mxCell>
        <mxCell id="T27CqYGsaPS9d729V8mV-4" value="R" style="whiteSpace=wrap;html=1;aspect=fixed;fontSize=24;fillColor=#d5e8d4;strokeColor=#82b366;" vertex="1" parent="1">
          <mxGeometry x="350" y="300" width="80" height="80" as="geometry" />
        </mxCell>
        <mxCell id="T27CqYGsaPS9d729V8mV-5" value="N" style="whiteSpace=wrap;html=1;aspect=fixed;fontSize=24;fillColor=#d5e8d4;strokeColor=#82b366;" vertex="1" parent="1">
          <mxGeometry x="430" y="300" width="80" height="80" as="geometry" />
        </mxCell>
        <mxCell id="T27CqYGsaPS9d729V8mV-13" style="edgeStyle=orthogonalEdgeStyle;rounded=0;orthogonalLoop=1;jettySize=auto;html=1;exitX=1;exitY=0;exitDx=0;exitDy=0;entryX=1;entryY=0;entryDx=0;entryDy=0;endArrow=none;endFill=0;" edge="1" parent="1" source="T27CqYGsaPS9d729V8mV-6" target="T27CqYGsaPS9d729V8mV-9">
          <mxGeometry relative="1" as="geometry">
            <Array as="points">
              <mxPoint x="590" y="260" />
              <mxPoint x="750" y="260" />
            </Array>
          </mxGeometry>
        </mxCell>
        <mxCell id="T27CqYGsaPS9d729V8mV-6" value="A" style="whiteSpace=wrap;html=1;aspect=fixed;fontSize=24;fillColor=#d5e8d4;strokeColor=#82b366;" vertex="1" parent="1">
          <mxGeometry x="510" y="300" width="80" height="80" as="geometry" />
        </mxCell>
        <mxCell id="T27CqYGsaPS9d729V8mV-7" value="M" style="whiteSpace=wrap;html=1;aspect=fixed;fontSize=24;fillColor=#f8cecc;strokeColor=#b85450;" vertex="1" parent="1">
          <mxGeometry x="590" y="300" width="80" height="80" as="geometry" />
        </mxCell>
        <mxCell id="T27CqYGsaPS9d729V8mV-9" value="E" style="whiteSpace=wrap;html=1;aspect=fixed;fontSize=24;fillColor=#f8cecc;strokeColor=#b85450;" vertex="1" parent="1">
          <mxGeometry x="670" y="300" width="80" height="80" as="geometry" />
        </mxCell>
        <mxCell id="T27CqYGsaPS9d729V8mV-12" value="Buffer (6 bytes)" style="text;html=1;align=center;verticalAlign=middle;whiteSpace=wrap;rounded=0;fontSize=18;" vertex="1" parent="1">
          <mxGeometry x="295" y="220" width="130" height="30" as="geometry" />
        </mxCell>
        <mxCell id="T27CqYGsaPS9d729V8mV-14" value="Overflow" style="text;html=1;align=center;verticalAlign=middle;whiteSpace=wrap;rounded=0;fontSize=18;" vertex="1" parent="1">
          <mxGeometry x="610" y="220" width="130" height="30" as="geometry" />
        </mxCell>
        <mxCell id="T27CqYGsaPS9d729V8mV-15" value="0" style="text;html=1;align=center;verticalAlign=middle;whiteSpace=wrap;rounded=0;fontSize=18;" vertex="1" parent="1">
          <mxGeometry x="120" y="390" width="60" height="30" as="geometry" />
        </mxCell>
        <mxCell id="T27CqYGsaPS9d729V8mV-16" value="1" style="text;html=1;align=center;verticalAlign=middle;whiteSpace=wrap;rounded=0;fontSize=18;" vertex="1" parent="1">
          <mxGeometry x="200" y="390" width="60" height="30" as="geometry" />
        </mxCell>
        <mxCell id="T27CqYGsaPS9d729V8mV-17" value="2" style="text;html=1;align=center;verticalAlign=middle;whiteSpace=wrap;rounded=0;fontSize=18;" vertex="1" parent="1">
          <mxGeometry x="280" y="390" width="60" height="30" as="geometry" />
        </mxCell>
        <mxCell id="T27CqYGsaPS9d729V8mV-18" value="3" style="text;html=1;align=center;verticalAlign=middle;whiteSpace=wrap;rounded=0;fontSize=18;" vertex="1" parent="1">
          <mxGeometry x="360" y="390" width="60" height="30" as="geometry" />
        </mxCell>
        <mxCell id="T27CqYGsaPS9d729V8mV-19" value="4" style="text;html=1;align=center;verticalAlign=middle;whiteSpace=wrap;rounded=0;fontSize=18;" vertex="1" parent="1">
          <mxGeometry x="440" y="390" width="60" height="30" as="geometry" />
        </mxCell>
        <mxCell id="T27CqYGsaPS9d729V8mV-20" value="5" style="text;html=1;align=center;verticalAlign=middle;whiteSpace=wrap;rounded=0;fontSize=18;" vertex="1" parent="1">
          <mxGeometry x="520" y="390" width="60" height="30" as="geometry" />
        </mxCell>
        <mxCell id="T27CqYGsaPS9d729V8mV-21" value="6" style="text;html=1;align=center;verticalAlign=middle;whiteSpace=wrap;rounded=0;fontSize=18;" vertex="1" parent="1">
          <mxGeometry x="600" y="390" width="60" height="30" as="geometry" />
        </mxCell>
        <mxCell id="T27CqYGsaPS9d729V8mV-22" value="7" style="text;html=1;align=center;verticalAlign=middle;whiteSpace=wrap;rounded=0;fontSize=18;" vertex="1" parent="1">
          <mxGeometry x="680" y="390" width="60" height="30" as="geometry" />
        </mxCell>
      </root>
    </mxGraphModel>
  </diagram>
</mxfile>
